<?xml version="1.0" encoding="utf-8"?>
<!-- Generator: Adobe Illustrator 26.0.1, SVG Export Plug-In . SVG Version: 6.00 Build 0)  -->
<svg version="1.1" id="Layer_1" xmlns="http://www.w3.org/2000/svg" xmlns:xlink="http://www.w3.org/1999/xlink" x="0px" y="0px"
	 viewBox="0 0 34.1 34.1" style="enable-background:new 0 0 34.1 34.1;" xml:space="preserve">
<style type="text/css">
	.st0{fill:#C4C4C4;}
</style>
<g>
	<rect class="st0" width="34.1" height="34.1"/>
	<path d="M8.1,11V8.4h2.6V11H8.1z M8.1,26.4v-2.6h2.6v2.6H8.1z M10.6,13.5V11h2.6v2.6H10.6z M10.6,23.8v-2.6h2.6v2.6H10.6z
		 M13.2,16.1v-2.6h2.6v2.6H13.2z M13.2,21.2v-2.6h2.6v2.6H13.2z M15.8,18.7v-2.6h2.6v2.6H15.8z M18.3,16.1v-2.6h2.6v2.6H18.3z
		 M18.3,21.2v-2.6h2.6v2.6H18.3z M20.9,13.5V11h2.6v2.6H20.9z M20.9,23.8v-2.6h2.6v2.6H20.9z M23.5,11V8.4H26V11H23.5z M23.5,26.4
		v-2.6H26v2.6H23.5z"/>
</g>
</svg>
